General
Complete name                    : Saw.VII.2010.480p.BRRip.x264.AC3-TiMPE.mp4
Format                           : MPEG-4
Format profile                   : Base Media
Codec ID                         : isom
File size                        : 1.17 GiB
Duration                         : 1h 30mn
Overall bit rate                 : 1 857 Kbps
Encoded date                     : UTC 2010-12-26 14:13:08
Tagged date                      : UTC 2010-12-26 14:13:08

Video
ID                               : 1
Format                           : AVC
Format/Info                      : Advanced Video Codec
Format profile                   : High@L3.1
Format settings, CABAC           : Yes
Format settings, ReFrames        : 4 frames
Format settings, GOP             : M=4, N=16
Codec ID                         : avc1
Codec ID/Info                    : Advanced Video Coding
Duration                         : 1h 30mn
Bit rate mode                    : Variable
Bit rate                         : 1 407 Kbps
Maximum bit rate                 : 5 058 Kbps
Width                            : 720 pixels
Height                           : 400 pixels
Display aspect ratio             : 16:9
Frame rate mode                  : Constant
Frame rate                       : 23.976 fps
Color space                      : YUV
Chroma subsampling               : 4:2:0
Bit depth                        : 8 bits
Scan type                        : Progressive
Bits/(Pixel*Frame)               : 0.204
Stream size                      : 906 MiB (76%)
Writing library                  : x264 core 112 r1834 a51816a
Encoding settings                : cabac=1 / ref=1 / deblock=1:0:0 / analyse=0x3:0x3 / me=hex / subme=2 / psy=1 / psy_rd=0.00:0.00 / mixed_ref=0 / me_range=16 / chroma_me=1 / trellis=0 / 8x8dct=1 / cqm=0 / deadzone=21,11 / fast_pskip=1 / chroma_qp_offset=0 / threads=12 / sliced_threads=0 / nr=0 / decimate=1 / interlaced=0 / constrained_intra=0 / bframes=3 / b_pyramid=2 / b_adapt=1 / b_bias=0 / direct=1 / weightb=1 / open_gop=0 / weightp=1 / keyint=250 / keyint_min=23 / scenecut=40 / intra_refresh=0 / rc_lookahead=0 / rc=crf / mbtree=0 / crf=20.0 / qcomp=0.60 / qpmin=10 / qpmax=51 / qpstep=4 / vbv_maxrate=17500 / vbv_bufsize=14000 / crf_max=0.0 / ip_ratio=1.40 / pb_ratio=1.30 / aq=1:1.00 / nal_hrd=none
Encoded date                     : UTC 2010-12-26 14:13:08
Tagged date                      : UTC 2010-12-26 14:13:17

Audio

Language:                        : English
ID                               : 2
Format                           : AC-3
Format/Info                      : Audio Coding 3
Mode extension                   : CM (complete main)
Codec ID                         : ac-3
Duration                         : 1h 30mn
Bit rate mode                    : Constant
Bit rate                         : 448 Kbps
Channel(s)                       : 6 channels
Channel positions                : Front: L C R, Side: L R, LFE
Sampling rate                    : 48.0 KHz
Bit depth                        : 16 bits
Compression mode                 : Lossy
Stream size                      : 288 MiB (24%)
Encoded date                     : UTC 2010-12-26 14:13:15
Tagged date                      : UTC 2010-12-26 14:13:17

Subtitles Included :             Romanianwas hutrat